<svg version="1" xmlns="http://www.w3.org/2000/svg" width="666.667" height="666.667" viewBox="0 0 500.000000 500.000000"><path d="M236 43c-7.4.8-16.4 2.9-28.7 6.8-3.4 1.1-6.5 1.7-7 1.3-.4-.3-.5-.2 0 .3.9 1.2-19.1 11.9-20.5 11-.6-.4-.8-.2-.5.3.4.6-2.1 3-5.4 5.4-3.3 2.4-6.7 4.9-7.4 5.6-.7.7-1.7.9-2.1.5-.5-.4-.6-.3-.1.2.4.5-2.5 4.2-6.5 8.2-5.2 5.3-7.5 7-8.4 6.3-.8-.7-1.4-.6-1.9.1-.4.6-.3.9.2.8 1.8-.6 1.7 1.4-.2 4.2-1.1 1.7-2.6 2.8-3.3 2.5-.7-.3-1-.1-.7.4.6 1.1-4.3 8.7-5.4 8.4-.4-.1-.8.3-.8 1-.1 2-7 12.7-7.7 11.9-.4-.4-.6-.3-.4.3.1.5-1.6 4.8-3.9 9.5-10.8 22.1-17.6 43.6-22.3 71-.8 4.9-2.9 28.4-2.9 33.5-.1 23.8.2 34.6 1.1 42 .6 4.9 1.1 11.5 1.2 14.5.1 3 .4 5.7.7 6 .3.3 2.3 7.5 4.3 16 2.1 8.5 4.7 18.5 5.8 22.2 1.1 3.7 1.6 7.3 1.2 7.9-.4.7-.3.9.3.6 1.1-.7 4.6 9 3.8 10.3-.3.5-.2 1 .3 1.2 1.3.5 5.2 10.9 4.5 12.1-.3.6-.1.7.5.3 1.4-.8 2.7 3.7 1.6 5.5-.4.7-.3.9.3.6 1.3-.8 10.6 17 9.7 18.4-.3.5 0 .9.5.9 1.2 0 7.7 11 7.3 12.2-.1.5.4.7 1.1.5.6-.1 1.1.6 1.1 1.5-.1 1 .2 1.6.6 1.3.9-.5 4.6 4.6 4.2 5.8-.1.5.2.6.7.3 1.4-.9 6.4 6 5.5 7.5-.4.7-.3.9.3.6 1.3-.8 10.6 8.7 9.6 9.8-.5.4-.3.5.3.2.7-.4 1.8.1 2.5 1 .8.9 2.9 2.2 4.7 3 1.7.7 3.2 1.8 3.2 2.4 0 .5.4.8 1 .4 1.7-1.1 9.5 4.6 8.2 6.1-.4.4-.2.4.5.1 1.7-1 6.6 1.1 5.7 2.5-.4.6-.3.8.3.5.5-.3 2.6-.1 4.7.5 2.6.8 3.5 1.6 3.1 2.6-.4 1.2-.3 1.2.9.3 1.1-.9 2-.9 3.4-.2 2.1 1.1 9.1 3 13.2 3.5 1.4.2 6.1 1.1 10.4 2 9.5 2 27.3 2 36 .1 3.3-.8 6.3-1.2 6.7-.9.4.2 1 0 1.4-.6.3-.5 2.2-1 4.1-1 4.1 0 12.4-1.9 14.1-3.2.7-.5 1.8-.6 2.4-.2.7.4.9.3.6-.3-.4-.7 1.3-1.6 4.5-2.4 6-1.4 22.1-11.8 28-18.1 2.3-2.4 4.2-3.7 4.9-3.2.7.4.9.3.6-.3-.8-1.3 3.7-5.6 4.7-4.6.4.5.6.3.5-.2-.4-1.3 6.9-9.1 8.2-8.8.5.2.8 0 .8-.5-.3-1.9.2-2.5 1.2-1.2.8 1.3.9 1.3.7-.2-.4-2.3 8.1-15 9.4-14.2.7.4.8.2.4-.4-.4-.7-.2-1.2.4-1.2.6 0 .9-.4.6-.8-.7-1.1 2.3-5.4 3.3-4.8.4.3 1.3.1 2.1-.5 1-.6 1.1-.9.3-.9-1.8 0-1.6-1.6.5-3.6.9-1 1.5-1.9 1.3-2.1-.8-.9 5.3-11.2 6.3-10.6.5.4.7-.1.3-1-.3-1-.2-1.7.3-1.7s.6-.7.3-1.7c-.5-1.2-.3-1.4.7-.8.9.5 1.1.4.6-.3-.4-.7.3-3.3 1.4-5.9 1.2-2.7 2.3-5.3 2.4-5.8.1-.6 1.9-6.4 4-13 6.8-21.6 7.9-26.3 12.1-49 1.4-7.5 2.5-24.1 2.8-42.5.1-11.8-1-36.7-1.8-38-.2-.4-.7-2.9-.9-5.6-.3-2.8-1.3-9.2-2.2-14.4-.9-5.2-1.8-10.2-1.9-11-.1-.8-.5-2.2-.8-3-.4-.8-1.8-6.4-3.2-12.3-1.4-6-3.2-12.5-4-14.4-1.2-2.9-1.3-3.9-.3-5.2 1.1-1.4 1.1-1.4-.4-.3-1.4 1.1-1.8.8-2.8-2.5-1.4-4.7-2-6-6.1-14.8-1.8-3.9-3.3-7.2-3.4-7.5 0-.3-1.1-2-2.3-3.8-1.8-2.4-2.1-3.6-1.3-4.6.8-.9.7-1.3-.4-1.3-.8 0-1.2.4-.9.9.3.4.3.8.1.8-1.2 0-7.7-11.2-7.1-12.2.4-.7.3-.8-.4-.4-.6.4-1.8-.6-2.6-2.3-.9-1.6-1.9-3.1-2.3-3.3-2.3-1-7.2-8-6.7-9.5.5-1.4.4-1.5-.4-.4-1.1 1.5-2.7-.2-1.7-1.9.3-.5 0-.7-.9-.4-1.6.6-4.1-3-3.1-4.6.4-.6-.1-.7-1.1-.3-1.4.5-1.6.3-1.1-1.1.5-1.1.3-1.5-.5-1-.6.4-1.6.1-2.2-.7-.6-.8-2.9-2.8-5.1-4.4-7-5.1-10.4-8.3-9.7-9.1.4-.4.2-.4-.5 0-1.6.9-9.6-3.2-8.8-4.4.4-.6-.1-.7-1.1-.3-1.1.4-1.5.2-1.1-.4.4-.6.1-1.1-.6-1-3 .1-4.8-.4-4.3-1.1.3-.5 0-.9-.7-.9-.7-.1-4.7-1.2-9-2.6-4.3-1.4-10.2-3.1-13.2-3.8-3-.7-5.5-1.5-5.5-1.8 0-.3-1.2-.7-2.7-.7-18-1-30.1-1.1-36.3-.4zm35.6 13.6c17.4 3.6 30.6 9.2 44.6 19.1 11.3 7.9 27.3 26.5 37.3 43.3 2.2 3.6 4.5 7.2 5.2 8.1.8.9 3.9 7.6 6.9 15 12.7 30.5 20.3 77.4 18.9 116-.9 23.4-1.8 30.9-5.6 46-.5 1.9-1.1 5.2-1.4 7.3-.6 5-7.6 28.2-12.1 40.5-5.4 14.6-15.8 32.2-26.1 44.6-10.7 12.9-28.3 29-34.5 31.8-1.6.6-2.8 1.6-2.8 2.1 0 .4-.6.6-1.4.3-.8-.3-1.7.1-2 .9-.3.9-1 1.3-1.5.9-.6-.3-1.3.1-1.8.8-.4.8-3 1.9-5.8 2.6-2.7.7-5.2 1.7-5.6 2.2-.6 1.1-6 2.1-23.3 4.5-21.3 2.9-42.5-.7-63.1-10.6-11.6-5.6-15.7-8-16.8-9.8-.4-.6-1.3-1.2-1.8-1.2-.6 0-4.5-3.5-8.7-7.7-7.7-7.8-14.9-16.3-13.8-16.3.3 0-.4-1.2-1.6-2.6-5.2-5.9-14.9-24.8-22.8-44.2-4-9.9-11.5-36.1-13.5-46.7-.2-1.1-1.3-7.2-2.5-13.5-4.1-21.6-3.8-72.1.6-95.9 4.6-24.8 12.5-46.4 25.6-70.6 3.3-6 16.8-23.8 23.2-30.5 11.2-11.7 19.3-17.8 33.4-25.2 12.1-6.3 25.8-10.6 38.7-12.1 8.6-1.1 27.2-.6 34.1.9z"/><path d="M236.5 70.9c-12.2 2.5-26.9 7.6-34.5 12.1-7.4 4.3-18.1 12.6-25.8 20.1-6.7 6.4-20.7 23.8-19.9 24.6.4.3 2.4-.2 4.7-1.1 6.2-2.5 10.4-2.1 14.3 1.4l3.4 2.9 1.1-2.3c1.3-3 6.6-6.9 11.1-8.5 6.8-2.2 12.4-1.2 19.4 3.6 3.4 2.4 3.9 2.5 5.5 1 3.6-3.3 11.6-6 17.3-6 6.5.1 14.5 3.3 17.2 6.9 4.7 6.2 5.1 12.6 4.4 72.9-.1 8.9 1 13.3 3.9 15.1 2 1.3 3 1.5 4.9.6 5.4-2.5 5.5-3.4 5.5-35.7 0-16.5-.2-35-.6-41.3l-.7-11.3-5.6-7.8c-3.1-4.3-7.6-10.1-10-13-2.4-2.8-4.2-5.3-4-5.5 1.9-1.4 11.9-6.5 13.4-6.8 1.5-.3 2.9 1.1 5.8 5.4 2 3.1 3.7 6.2 3.7 6.7 0 1.4 12 19.1 12.9 19.1.5 0 1.9-.9 3.2-1.9 3.2-2.5 12-5.1 15.7-4.6 5 .6 12.5 4.7 16.8 9.2 4.7 4.8 10.8 14.9 9.9 16.3-.4.6-.2 1 .3 1 1.2 0 3.9 11.2 5.2 21.3 1.1 8.6-.2 30.1-2.2 37-.6 2.3-1.3 4.8-1.4 5.5-.8 4.3-8 16.4-12.3 20.9-9 9.3-19.7 13-37.4 12.9-13.1-.1-13.6-.5-13.2-10.1.3-5.7.1-6.4-1.4-5.6-3 1.5-8.1 2.1-10.6 1.1l-2.5-1v12.8c0 7-.3 24.1-.7 37.9-.3 13.9-.4 25.3-.2 25.3s3.6-1.1 7.4-2.5l7-2.4-.3-17.9c-.2-13.5.1-18.2 1-19 2.5-2 16.7-3.5 27.6-2.9 21.5 1.1 36.5 10.1 42.9 25.8 1.4 3.4 1.8 7.1 1.8 15.9 0 10.5-.3 11.9-2.7 16.5-1.4 2.7-4.7 7-7.2 9.5-2.5 2.4-4.6 5.2-4.6 6.1 0 1.5 1.3 4.3 7.8 16.4 1.1 2.2 3.3 6.8 4.8 10.2 1.5 3.5 2.9 6.3 3.3 6.3.9 0 6.8-11.7 9.9-20 5-12.9 10.9-33.2 12.6-43 .3-1.9.8-4.4 1-5.5.2-1.1.7-5.2 1.1-9 .4-3.9.9-7.9 1.2-9 .3-1.1.7-13.5.9-27.5.4-39-2.2-57.1-13.3-91.5-5.6-17.2-16.8-38.8-23.6-45.6-.7-.8-2.7-3.2-4.3-5.5-3.3-4.5-12.9-13.7-17.8-17-12-8-17.5-11-24.1-13-.5-.2-4.4-1.5-8.5-2.9s-9-2.7-11-3c-6.4-1-25.4-1.4-29.5-.6z"/><path d="M195 133c-3.9.9-8.4 5.6-10 10.5-1.4 4.3-2.7 28.7-2.9 56.9-.1 13.1-.4 24.3-.7 24.7-.7 1.2-16.9.6-16.7-.6.1-.6.4-7.6.8-15.5.3-8 1-17.7 1.5-21.5.5-3.9.9-14.8 1-24.4.1-19.6-.5-21.5-6.4-22.7-7.8-1.4-16.1 7.4-20.2 21.6-.9 3-2 5.9-2.4 6.5-.9 1.2-4.1 13.8-4.6 18-.2 1.6-.8 5-1.4 7.5-3 14.1-4.9 58.6-3 70.7.5 2.9 1.1 7.8 1.5 11 1.8 17.8 7 42.3 12.3 58.8 2.2 6.7 8.9 22.1 11.9 27.5 1.1 1.9 3.5 6.1 5.2 9.3 1.8 3.1 4.4 6.6 5.7 7.6 1.3 1 2.4 2.4 2.4 3 0 .6.7 1.1 1.6 1.1.8 0 1.3-.4.9-.9-.3-.5.3-1.2 1.2-1.5 1.6-.5 1.8-2.2 1.9-15.8.3-24.7.3-99.4.1-110.8-.2-12.4-.3-12.4 10.8-8.8l7 2.3v8.5c0 4.7-.4 18.5-.8 30.7l-.7 22.1 5.7 2.9c5.2 2.5 6.8 2.8 15.8 2.7 8.6 0 11-.4 17.3-2.9l7.2-2.9.1-4.5c0-2.5.2-14.5.4-26.6.2-12.1.7-38.9 1.2-59.5 1.5-70.2 1.1-78.6-3.6-83.3-2.6-2.6-6.8-3-9.1-.9-6.3 6-7.8 17.6-8 60.9 0 16.3-.3 30-.6 30.5-.9 1.4-15.4 1-15.5-.5-.2-1.6-.2-.6.5-12.7.9-14.9 2-53.8 1.9-64.9-.1-7.5-.5-9.9-2-11.9-2.3-3.1-2.8-3.2-7.3-2.2zM296.3 133c-7.1 1.7-11.5 6.5-11.9 13.3-.8 10.8-1 77.6-.3 79.4.7 1.8 1.4 2 5.6 1.6 5.6-.5 11.1-2.1 13.1-3.7 13.3-10.5 18.4-27.8 16.2-54.4-1.8-21.4-6-32.6-13.5-35.8-3.8-1.5-4.4-1.6-9.2-.4zM288.5 270.8c-1.6.2-3.4.7-3.9 1.2-.4.5-1 6.2-1.2 12.8l-.5 11.9 4.4.6c9.7 1.3 22.1 9.2 28 17.6l1.6 2.5 2.6-2.9c4.8-5.1 6.7-14.1 5-23.4-.9-4.7-5.1-11-8.1-12.1-1.3-.5-2.7-1.7-3-2.5-.4-.8-1.7-1.5-2.9-1.5-1.3 0-2.6-.4-2.9-.9-1.2-1.8-13.6-4-19.1-3.3zM283.6 310.8c-1.2 2-1.7 7.9-1.1 12.2l.7 5h4.8c2.7 0 7.2-.5 10-1.1 5.9-1.3 6.4-3 2.4-7.9-3.5-4.1-15.7-10.1-16.8-8.2z"/><path d="M258.8 316.7l-5.8 2.6-.1 8.1c-.1 4.4-.1 22.5 0 40 .2 25.4 0 32.1-1.1 32.7-.7.5-4.5.9-8.5.9-6 0-7.1-.3-6.7-1.5.4-1 0-1.5-1.1-1.5-1.7 0-1.7-5.6.4-35 .6-9.3.7-29.9.2-36.9-.1-.8-.7-1.1-1.7-.7-10 3.9-28.3 4.4-37.7 1.1-2.7-.9-5.1-1.5-5.3-1.2-.6.6-.5 79.2.1 80.9 1.1 2.8 12.4 9.9 21.8 13.7 12.6 5.1 25.7 7.4 39.5 7 6.1-.3 11.4-.7 11.8-1.1 1.8-1.8 2.3-14.2 2.5-61 .1-42.3 0-50.3-1.2-50.5-.8-.1-4 1-7.1 2.4zM293.2 341.4c-4.6 1.3-8.8 2.8-9.5 3.5-1.5 1.5-1.6 69.4-.1 72.9l1 2.3 9-4.5c10.6-5.5 23.7-16.3 29.8-24.6 4.8-6.7 5.8-12.5 3.2-18.3-.8-1.8-1.9-4.8-2.5-6.7-2.9-10.4-7.6-21.6-10.4-24.8-2.7-2.9-9.3-2.9-20.5.2zM290.2 451.9c-1.1.7-1.1.9 0 1.4.9.3 1.5-.1 1.5-.9s-.1-1.4-.1-1.4c-.1 0-.7.4-1.4.9z"/></svg>